<svg width="62" height="62" viewBox="0 0 62 62" fill="none"
  xmlns="http://www.w3.org/2000/svg">
  <path d="M46.5185 0C48.642 0 50.642 0.412437 52.5185 1.23731C54.3951 2.06219 56.037 3.18702 57.4444 4.6118C58.8519 6.03658 59.963 7.69883 60.7778 9.59854C61.5926 11.4983 62 13.5229 62 15.6726V47.0178C62 49.1675 61.5926 51.2047 60.7778 53.1294C59.963 55.0541 58.8519 56.7289 57.4444 58.1537C56.037 59.5784 54.3951 60.7033 52.5185 61.5281C50.642 62.353 48.642 62.7655 46.5185 62.7655H15.4815C13.358 62.7655 11.358 62.353 9.48148 61.5281C7.60494 60.7033 5.96296 59.5784 4.55556 58.1537C3.14815 56.7289 2.03704 55.0541 1.22222 53.1294C0.407407 51.2047 0 49.1675 0 47.0178V15.6726C0 13.5229 0.407407 11.4983 1.22222 9.59854C2.03704 7.69883 3.14815 6.03658 4.55556 4.6118C5.96296 3.18702 7.60494 2.06219 9.48148 1.23731C11.358 0.412437 13.358 0 15.4815 0H46.5185ZM50.963 41.4687C52 39.319 52.5185 36.4445 52.5185 32.845C52.5185 28.7456 51.358 25.2962 49.037 22.4966C49.4815 21.0968 49.7037 19.647 49.7037 18.1472C49.7037 16.1475 49.2593 14.2478 48.3704 12.4481C46.4938 12.4481 44.8889 12.7731 43.5556 13.423C42.0741 14.1229 40.4691 15.1727 38.7407 16.5725C37.6049 16.3225 36.4444 16.1225 35.2593 15.9726C34.0741 15.8226 32.8395 15.7476 31.5556 15.7476C28.7901 15.7476 26.1481 16.0476 23.6296 16.6475C21.7531 15.2477 20.1235 14.1978 18.7407 13.4979C17.4074 12.7981 15.7778 12.4481 13.8519 12.4481C12.963 14.2478 12.5185 16.1475 12.5185 18.1472C12.5185 18.8971 12.5802 19.6345 12.7037 20.3594C12.8272 21.0843 13.0123 21.7967 13.2593 22.4966C10.9383 25.1962 9.77778 28.6456 9.77778 32.845C9.77778 36.4445 10.2963 39.319 11.3333 41.4687C12.1728 43.2184 13.4074 44.6057 15.037 45.6306C16.6667 46.6554 18.3704 47.3928 20.1481 47.8427C21.4321 48.2427 22.7407 48.5176 24.0741 48.6676C24.8148 48.7676 25.5062 48.8426 26.1481 48.8926C26.7901 48.9426 27.3827 48.9676 27.9259 48.9676C28.4691 49.0175 29.037 49.0425 29.6296 49.0425H33.7778L35.8519 48.9676C36.4938 48.9176 37.1728 48.8426 37.8889 48.7426C38.6049 48.6426 39.3827 48.5176 40.2222 48.3676C41.9506 48.0677 43.4074 47.6678 44.5926 47.1678C45.8765 46.6179 47.0864 45.8555 48.2222 44.8807C49.358 43.9058 50.2716 42.7685 50.963 41.4687ZM40.1481 29.6205C42.2222 29.6205 43.8272 30.3454 44.963 31.7952C46.1481 33.2449 46.7407 35.0197 46.7407 37.1194C46.7407 38.6191 46.4691 39.9314 45.9259 41.0563C45.3827 42.1811 44.6914 43.0934 43.8519 43.7933C42.963 44.4432 41.9259 44.9432 40.7407 45.2931C39.4568 45.6931 38.2469 45.9555 37.1111 46.0805C35.9753 46.2055 34.6914 46.268 33.2593 46.268H28.963C27.5309 46.268 26.2593 46.2055 25.1481 46.0805C24.037 45.9555 22.8395 45.6931 21.5556 45.2931C20.3704 44.9432 19.3333 44.4432 18.4444 43.7933C17.6049 43.0934 16.9012 42.1811 16.3333 41.0563C15.7654 39.9314 15.4815 38.6191 15.4815 37.1194C15.4815 35.0197 16.0741 33.2449 17.2593 31.7952C18.3951 30.3454 20 29.6205 22.0741 29.6205C22.4691 29.6205 23.0864 29.658 23.9259 29.733C24.7654 29.808 25.8272 29.9454 27.1111 30.1454C27.7037 30.2454 28.3333 30.3204 29 30.3704C29.6667 30.4204 30.3704 30.4454 31.1111 30.4454C31.8519 30.4454 32.5556 30.4204 33.2222 30.3704C33.8889 30.3204 34.5432 30.2454 35.1852 30.1454C36.4691 29.9454 37.5309 29.808 38.3704 29.733C39.2099 29.658 39.8025 29.6205 40.1481 29.6205ZM24.7407 41.1687C25.5309 40.2689 25.9877 39.269 26.1111 38.1692C26.2346 37.0694 26.1481 35.9945 25.8519 34.9447C25.6543 34.2448 25.2963 33.5949 24.7778 32.995C24.2593 32.3951 23.6296 32.0951 22.8889 32.0951C22.1481 32.0951 21.5309 32.3951 21.037 32.995C20.2469 33.8948 19.7901 34.8947 19.6667 35.9945C19.5432 37.0944 19.6296 38.1692 19.9259 39.219C20.1728 39.9189 20.5556 40.5688 21.0741 41.1687C21.5926 41.7686 22.1975 42.0686 22.8889 42.0686C23.5802 42.0686 24.1975 41.7686 24.7407 41.1687ZM41.1852 41.1687C41.9753 40.2689 42.4321 39.269 42.5556 38.1692C42.679 37.0694 42.5926 35.9945 42.2963 34.9447C42.0988 34.2448 41.7407 33.5949 41.2222 32.995C40.7037 32.3951 40.0741 32.0951 39.3333 32.0951C38.5926 32.0951 37.9753 32.3951 37.4815 32.995C36.6914 33.8948 36.2346 34.8947 36.1111 35.9945C35.9877 37.0944 36.0741 38.1692 36.3704 39.219C36.6173 39.9189 37 40.5688 37.5185 41.1687C38.037 41.7686 38.642 42.0686 39.3333 42.0686C40.0247 42.0686 40.642 41.7686 41.1852 41.1687Z"/>
</svg>
