<svg width="62" height="62" viewBox="0 0 62 62" fill="none"
  xmlns="http://www.w3.org/2000/svg">
  <path d="M46.5185 0C48.642 0 50.642 0.407407 52.5185 1.22222C54.3951 2.03704 56.037 3.14815 57.4444 4.55556C58.8519 5.96296 59.963 7.60494 60.7778 9.48148C61.5926 11.358 62 13.358 62 15.4815V46.4444C62 48.5679 61.5926 50.5802 60.7778 52.4815C59.963 54.3827 58.8519 56.037 57.4444 57.4444C56.037 58.8519 54.3951 59.963 52.5185 60.7778C50.642 61.5926 48.642 62 46.5185 62H15.4815C13.358 62 11.358 61.5926 9.48148 60.7778C7.60494 59.963 5.96296 58.8519 4.55556 57.4444C3.14815 56.037 2.03704 54.3827 1.22222 52.4815C0.407407 50.5802 0 48.5679 0 46.4444V15.4815C0 13.358 0.407407 11.358 1.22222 9.48148C2.03704 7.60494 3.14815 5.96296 4.55556 4.55556C5.96296 3.14815 7.60494 2.03704 9.48148 1.22222C11.358 0.407407 13.358 0 15.4815 0H46.5185ZM21.3333 23.2593H13.5556V48.4444H21.3333V23.2593ZM17.4815 21.2593C18.5185 21.2593 19.4198 20.8889 20.1852 20.1481C20.9506 19.4074 21.3333 18.4938 21.3333 17.4074C21.3333 16.321 20.9506 15.4074 20.1852 14.6667C19.4198 13.9259 18.5185 13.5556 17.4815 13.5556C16.3951 13.5556 15.4691 13.9259 14.7037 14.6667C13.9383 15.4074 13.5556 16.321 13.5556 17.4074C13.5556 18.4938 13.9383 19.4074 14.7037 20.1481C15.4691 20.8889 16.3951 21.2593 17.4815 21.2593ZM48.4444 33.8519C48.4444 32.0741 47.9506 30.3333 46.963 28.6296C45.9753 26.9259 44.6914 25.6296 43.1111 24.7407C41.679 23.9506 40.0123 23.5309 38.1111 23.4815C36.2099 23.4321 34.4938 23.7531 32.963 24.4444V23.2593H25.1852V48.4444H32.963V33.037L36.1481 31.4815C36.5432 31.284 37.0864 31.1852 37.7778 31.1852C38.4691 31.1852 38.9877 31.3086 39.3333 31.5556C39.6296 31.7037 39.9259 32.0247 40.2222 32.5185C40.5185 33.0123 40.6667 33.4568 40.6667 33.8519V48.4444H48.4444V33.8519Z"/>
</svg>
