<svg width="62" height="62" viewBox="0 0 62 62" fill="none"
  xmlns="http://www.w3.org/2000/svg">
  <path d="M0 12C0 5.37258 5.37258 0 12 0H50C56.6274 0 62 5.37258 62 12V50C62 56.6274 56.6274 62 50 62H12C5.37258 62 0 56.6274 0 50V12Z" fill="#FDF0D5"/>
  <path d="M21.8455 19.0234C28.3876 19.0234 33.6905 24.3634 33.6905 30.9502C33.6905 37.537 28.3871 42.8765 21.8455 42.8765C15.3038 42.8765 10 37.537 10 30.9502C10 24.3634 15.3034 19.0234 21.8455 19.0234ZM40.7618 19.7221C44.0329 19.7221 46.6846 24.7486 46.6846 30.9502C46.6846 37.1502 44.0333 42.1783 40.7622 42.1783C37.4912 42.1783 34.8395 37.1502 34.8395 30.9502C34.8395 24.7502 37.4908 19.7221 40.7618 19.7221ZM49.917 20.8916C51.0671 20.8916 52 25.3949 52 30.9502C52 36.5039 51.0675 41.0088 49.917 41.0088C48.7664 41.0088 47.8343 36.5051 47.8343 30.9502C47.8343 25.3953 48.7668 20.8916 49.917 20.8916Z" fill="#003049"/>
</svg>
